<svg width="28" height="18" viewBox="0 0 28 18" fill="none" xmlns="http://www.w3.org/2000/svg">
<path d="M0.721591 18V0.545454H3.88352V15.3494H11.571V18H0.721591ZM14.3153 18V0.545454H20.8608C22.2017 0.545454 23.3267 0.795454 24.2358 1.29545C25.1506 1.79545 25.8409 2.48295 26.3068 3.35795C26.7784 4.22727 27.0142 5.21591 27.0142 6.32386C27.0142 7.44318 26.7784 8.4375 26.3068 9.30682C25.8352 10.1761 25.1392 10.8608 24.2188 11.3608C23.2983 11.8551 22.1648 12.1023 20.8182 12.1023H16.4801V9.50284H20.392C21.1761 9.50284 21.8182 9.36648 22.3182 9.09375C22.8182 8.82102 23.1875 8.44602 23.4261 7.96875C23.6705 7.49148 23.7926 6.94318 23.7926 6.32386C23.7926 5.70455 23.6705 5.15909 23.4261 4.6875C23.1875 4.21591 22.8153 3.84943 22.3097 3.58807C21.8097 3.32102 21.1648 3.1875 20.375 3.1875H17.4773V18H14.3153Z" fill="#245D97"/>
</svg>
